<svg xmlns="http://www.w3.org/2000/svg" xmlns:xlink="http://www.w3.org/1999/xlink" width="290" height="106" viewBox="0 0 290 106"><path fill="#09f" d="M2.262 2.26h285.474v101.037H2.262V2.26zM0 105.56h290V0H0v105.56zm7.915-49.881h274.166v41.964H7.915zm241.72-31.309l16.348-16.974h13.406l-21.46 20.661 23.135 23.477h-12.923l-18.506-19.25v19.25h-9.017V7.396h9.017zM224.147 7.395h9.012v44.136h-9.012zm-45.513.001h9.173l11.726 35.392 12.048-35.392h9.332l-15.156 44.135h-12.51z"/><defs><path id="SVGID_1_" d="M0 0h290v105.56H0z"/></defs><clipPath id="SVGID_2_"><use xlink:href="#SVGID_1_" overflow="visible"/></clipPath><path clip-path="url(#SVGID_2_)" fill="#09f" d="M150.019 14.684v29.332l10.45-.016s2.633.08 5.025-1.678c1.871-1.374 3.59-4.472 3.909-7.35.316-2.876.746-12.728-2.439-16.855-2.744-3.553-6.813-3.434-7.69-3.434h-9.255zm9.796-7.237c5.826.158 8.297 1.197 10.532 2.635 2.23 1.439 8.392 5.399 8.392 18.422 0 13.02-3.831 16.936-7.661 20.05-3.825 3.116-12.522 3.036-12.522 3.036l-17.548-.059V7.396s12.985-.109 18.807.051M95.578 51.532h8.727V15.924l18.331 35.608h11.09V7.396h-8.856v32.009L108.835 7.396H95.578zM70.802 14.466l-6.717 19.322h13.321l-6.604-19.322zm21.911 37.066h-9.209L79.865 41.15H61.574L58.09 51.532h-9.498L63.866 7.394H77.71l15.003 44.138zM38.282 21.255h9.493s.24-6.029-2.313-9.438c-2.553-3.411-6.779-4.6-10.371-5.156-3.588-.555-15.1-1.587-21.123 3.015-5.506 4.204-4.643 10.151-4.643 10.073 0-.08-.326 7.716 6.46 10.47 3.91 1.587 11.568 2.063 11.568 2.063s6.061.554 7.897 1.267c1.833.714 3.431 2.062 3.431 4.683 0 2.616-.718 4.438-2.154 5.551-1.438 1.11-2.871 1.824-7.02 1.824-4.15 0-6.941-1.506-7.901-2.38-.955-.871-2.312-2.854-2.392-4.679-.08-1.824-.08-2.856-.08-2.856H9.165s-.559 5.632 2.393 9.835c2.953 4.206 7.502 5.395 9.812 5.949 2.315.555 5.504.795 8.139.795 2.631 0 8.215-.318 12.764-3.253 4.545-2.935 5.822-6.662 5.822-11.344 0-4.678-1.357-6.819-3.43-8.565-2.076-1.745-5.344-2.697-8.934-3.251-3.591-.556-5.187-.397-8.537-.793-3.349-.396-6.222-.635-7.418-3.014-1.197-2.38-1.197-5.234 1.196-7.456 2.395-2.221 6.541-2.062 7.578-2.062 1.039 0 5.506.318 7.262 2.221 1.752 1.903 2.31 3.012 2.47 6.501"/></svg>